<?xml version="1.0" encoding="utf-8"?>
<!-- Svg Vector Icons : http://www.onlinewebfonts.com/icon -->
<!DOCTYPE svg PUBLIC "-//W3C//DTD SVG 1.1//EN" "http://www.w3.org/Graphics/SVG/1.1/DTD/svg11.dtd">
<svg version="1.1" height="current" xmlns="http://www.w3.org/2000/svg" xmlns:xlink="http://www.w3.org/1999/xlink" x="0px" y="0px" viewBox="0 0 1000 1000" enable-background="new 0 0 1000 1000" xml:space="preserve" stroke-width="150">
<metadata> Svg Vector Icons : http://www.onlinewebfonts.com/icon </metadata>
<g><g transform="translate(0.000000,511.000000) scale(0.100000,-0.100000)">
<path fill="current" d="M2871.6,4953.8c-7.7-33.2-20.4-216.9-28.1-408.3l-15.3-352.2H5000h2174.4l-17.9,326.7c-7.7,178.6-20.4,362.4-28.1,408.3l-12.8,81.7H5000H2881.8L2871.6,4953.8z"/>
<path fill="current" d="M2805.2,3887.1c0-56.1-102.1-1998.3-229.7-4315.6c-125-2317.3-229.7-4246.7-229.7-4287.5v-74h839.6h839.6l51,273.1c25.5,153.1,242.4,1370.5,479.8,2705.2C4793.3-474.4,4992.3,620.4,5000,620.4s224.6-1191.8,479.8-2649.1c257.8-1454.7,474.7-2672,482.3-2702.7l12.8-58.7h839.6h839.7v71.5c0,38.3-104.6,1970.2-229.7,4290.1c-127.6,2322.4-229.7,4267.1-229.7,4320.7v97H6148.4H5102.1v-459.4v-459.4H5000h-102.1v459.4v459.4H3851.6H2805.2V3887.1z"/></g></g>
</svg>